<svg width="24" height="48" viewBox="0 0 24 48" fill="none" xmlns="http://www.w3.org/2000/svg">
<path d="M21.3397 48C21.0765 48.0015 20.8156 47.951 20.5719 47.8515C20.3282 47.752 20.1066 47.6053 19.9197 47.42L3.57972 31.08C2.64846 30.1511 1.9096 29.0476 1.40547 27.8327C0.901342 26.6178 0.641846 25.3154 0.641846 24C0.641846 22.6847 0.901342 21.3822 1.40547 20.1673C1.9096 18.9524 2.64846 17.8489 3.57972 16.92L19.9197 0.580034C20.1062 0.393558 20.3276 0.245636 20.5712 0.144715C20.8149 0.0437949 21.076 -0.00814819 21.3397 -0.00814819C21.6034 -0.0081482 21.8646 0.0437949 22.1082 0.144715C22.3519 0.245636 22.5732 0.393558 22.7597 0.580034C22.9462 0.766511 23.0941 0.987891 23.195 1.23154C23.296 1.47518 23.3479 1.73631 23.3479 2.00003C23.3479 2.26375 23.296 2.52489 23.195 2.76853C23.0941 3.01217 22.9462 3.23355 22.7597 3.42003L6.41972 19.76C5.29612 20.885 4.665 22.41 4.665 24C4.665 25.59 5.29612 27.115 6.41972 28.24L22.7597 44.58C22.9472 44.7659 23.096 44.9871 23.1975 45.2308C23.299 45.4745 23.3513 45.736 23.3513 46C23.3513 46.264 23.299 46.5254 23.1975 46.7691C23.096 47.0129 22.9472 47.2341 22.7597 47.42C22.5728 47.6053 22.3512 47.752 22.1075 47.8515C21.8639 47.951 21.6029 48.0015 21.3397 48Z" fill="#FF0000"/>
</svg>
