<svg width="20" height="11" viewBox="0 0 20 11" fill="none" xmlns="http://www.w3.org/2000/svg">
<path d="M20.0005 1.69131C20.0011 1.80099 19.9801 1.90971 19.9386 2.01124C19.8971 2.11277 19.836 2.20511 19.7588 2.28298L12.9505 9.09131C12.5634 9.47934 12.1036 9.7872 11.5974 9.99725C11.0912 10.2073 10.5485 10.3154 10.0005 10.3154C9.45241 10.3154 8.90973 10.2073 8.40352 9.99725C7.89731 9.7872 7.43752 9.47934 7.05047 9.09131L0.242146 2.28298C0.164447 2.20528 0.102813 2.11304 0.0607632 2.01152C0.0187129 1.91 -0.00293006 1.8012 -0.00293006 1.69131C-0.00293007 1.58143 0.0187129 1.47263 0.0607631 1.37111C0.102813 1.26959 0.164447 1.17735 0.242146 1.09965C0.319845 1.02195 0.412086 0.960315 0.513605 0.918265C0.615123 0.876215 0.723929 0.854572 0.833812 0.854572C0.943694 0.854572 1.0525 0.876215 1.15402 0.918265C1.25554 0.960315 1.34778 1.02195 1.42548 1.09965L8.2338 7.90798C8.70255 8.37615 9.33797 8.63911 10.0005 8.63911C10.663 8.63911 11.2984 8.37615 11.7671 7.90798L18.5755 1.09965C18.6529 1.02154 18.7451 0.959545 18.8466 0.917237C18.9482 0.87493 19.0571 0.853149 19.1671 0.853149C19.2771 0.853149 19.3861 0.87493 19.4876 0.917237C19.5892 0.959545 19.6813 1.02154 19.7588 1.09965C19.836 1.17751 19.8971 1.26986 19.9386 1.37139C19.9801 1.47292 20.0011 1.58164 20.0005 1.69131Z" fill="white"/>
</svg>
