<svg width="15" height="4" viewBox="0 0 15 4" fill="none" xmlns="http://www.w3.org/2000/svg">
<path d="M0.269531 2.24023C0.269531 1.84961 0.402995 1.52083 0.669922 1.25391C0.936849 0.986979 1.29818 0.853516 1.75391 0.853516C2.20964 0.853516 2.57096 0.986979 2.83789 1.25391C3.10482 1.52083 3.23828 1.84961 3.23828 2.24023C3.23828 2.62435 3.10482 2.94987 2.83789 3.2168C2.57096 3.47721 2.20964 3.60742 1.75391 3.60742C1.29818 3.60742 0.936849 3.47721 0.669922 3.2168C0.402995 2.94987 0.269531 2.62435 0.269531 2.24023ZM5.95312 2.24023C5.95312 1.84961 6.08659 1.52083 6.35352 1.25391C6.62044 0.986979 6.98177 0.853516 7.4375 0.853516C7.89323 0.853516 8.25456 0.986979 8.52148 1.25391C8.78841 1.52083 8.92188 1.84961 8.92188 2.24023C8.92188 2.62435 8.78841 2.94987 8.52148 3.2168C8.25456 3.47721 7.89323 3.60742 7.4375 3.60742C6.98177 3.60742 6.62044 3.47721 6.35352 3.2168C6.08659 2.94987 5.95312 2.62435 5.95312 2.24023ZM11.6367 2.24023C11.6367 1.84961 11.7702 1.52083 12.0371 1.25391C12.304 0.986979 12.6654 0.853516 13.1211 0.853516C13.5768 0.853516 13.9382 0.986979 14.2051 1.25391C14.472 1.52083 14.6055 1.84961 14.6055 2.24023C14.6055 2.62435 14.472 2.94987 14.2051 3.2168C13.9382 3.47721 13.5768 3.60742 13.1211 3.60742C12.6654 3.60742 12.304 3.47721 12.0371 3.2168C11.7702 2.94987 11.6367 2.62435 11.6367 2.24023Z" fill="#333333"/>
</svg>
