<svg width="89" height="87" viewBox="0 0 89 87" fill="none" xmlns="http://www.w3.org/2000/svg">
<rect width="88.2253" height="87" rx="3" fill="white"/>
<path d="M5.5 18L35.6828 43.4554C42.0702 48.8423 51.5272 48.4072 57.3929 42.4565L81.5 18" stroke="#237389" stroke-width="5" stroke-linecap="round"/>
<path d="M4.85823 62.2105C3.80827 63.1071 3.91602 64.4113 5.09889 65.1235C6.28176 65.8357 8.09181 65.6861 9.14177 64.7895L4.85823 62.2105ZM29.4491 41.2105L4.85823 62.2105L9.14177 64.7895L33.7326 43.7895L29.4491 41.2105Z" fill="#237389"/>
<path d="M84.3234 62.2105C85.3734 63.1071 85.2656 64.4113 84.0828 65.1235C82.8999 65.8357 81.0898 65.6861 80.0399 64.7895L84.3234 62.2105ZM59.7326 41.2105L72.028 51.7105L67.7445 54.2895L55.4491 43.7895L59.7326 41.2105ZM72.028 51.7105L84.3234 62.2105L80.0399 64.7895L67.7445 54.2895L72.028 51.7105Z" fill="#237389"/>
</svg>
