<svg width="30" height="30" viewBox="0 0 30 30" fill="none" xmlns="http://www.w3.org/2000/svg">
<path d="M15 26.25C21.2132 26.25 26.25 21.2132 26.25 15C26.25 8.7868 21.2132 3.75 15 3.75M15 26.25C8.7868 26.25 3.75 21.2132 3.75 15C3.75 8.7868 8.7868 3.75 15 3.75M15 26.25C12.2817 26.25 10.0781 21.2132 10.0781 15C10.0781 8.7868 12.2817 3.75 15 3.75M15 26.25C17.7183 26.25 19.9219 21.2132 19.9219 15C19.9219 8.7868 17.7183 3.75 15 3.75M5.85938 20.468C7.9204 19.2878 11.3447 18.5156 15.2205 18.5156C19.2656 18.5156 22.8188 19.3567 24.8438 20.625M5.85938 9.53198C7.9204 10.7122 11.3447 11.4844 15.2205 11.4844C19.2656 11.4844 22.8188 10.6433 24.8438 9.375" stroke="#237389" stroke-width="2"/>
</svg>
