<svg width="76" height="76" viewBox="0 0 76 76" fill="none" xmlns="http://www.w3.org/2000/svg">
<path fill-rule="evenodd" clip-rule="evenodd" d="M69.4766 27.075L66.1516 23.75C64.5671 22.1477 62.4196 21.2273 60.1666 21.185H47.4999V19.3483C47.4999 14.5389 43.6011 10.64 38.7916 10.64H12.6666C11.3549 10.64 10.2916 11.7033 10.2916 13.015C10.2916 14.3267 11.3549 15.39 12.6666 15.39H38.6966C40.8827 15.39 42.6549 17.1622 42.6549 19.3483V39.3933C42.6549 40.705 43.7182 41.7683 45.0299 41.7683C46.3416 41.7683 47.4049 40.705 47.4049 39.3933V25.935H60.0716C61.1211 25.9309 62.1271 26.3538 62.8582 27.1067L66.1832 30.2733C66.6367 30.7435 66.9636 31.3209 67.1333 31.9517H53.8332C52.5216 31.9517 51.4582 33.015 51.4582 34.3267C51.4582 35.6384 52.5216 36.7017 53.8332 36.7017H67.2916V50.16C67.3347 51.237 66.9368 52.285 66.1897 53.0619C65.4427 53.8388 64.4111 54.2775 63.3332 54.2767H59.8182C59.0389 50.6231 55.8116 48.0115 52.0757 48.0115C48.3399 48.0115 45.1126 50.6231 44.3332 54.2767H27.4233C26.5709 50.5001 23.0935 47.9082 19.2309 48.1703C15.3682 48.4324 12.2729 51.4704 11.9386 55.3275C11.6043 59.1846 14.1308 62.7098 17.8908 63.6326C21.6508 64.5554 25.5223 62.6003 27.0116 59.0267H44.7766C46.0109 61.966 48.8878 63.8781 52.0757 63.8781C55.2637 63.8781 58.1406 61.966 59.3749 59.0267H63.3332C68.1427 59.0267 72.0416 55.1278 72.0416 50.3183V33.25C72.0459 30.9317 71.1222 28.708 69.4766 27.075ZM19.6966 58.52C18.6335 58.5719 17.6463 57.9697 17.206 57.0006C16.7657 56.0316 16.9613 54.892 17.6996 54.1253C18.4379 53.3586 19.5694 53.1201 20.5543 53.5235C21.5393 53.927 22.1783 54.8907 22.1666 55.955C22.1675 57.3353 21.076 58.4689 19.6966 58.52ZM49.658 56.9096C50.058 57.8838 51.0068 58.5199 52.0599 58.52C53.4817 58.5201 54.6392 57.3767 54.6566 55.955C54.6694 54.902 54.045 53.9455 53.0758 53.5336C52.1065 53.1216 50.9845 53.3359 50.2353 54.076C49.4861 54.8161 49.258 55.9354 49.658 56.9096Z" fill="white"/>
<path d="M34.0416 28.5C34.0245 27.1955 32.9711 26.1421 31.6666 26.125H6.33325C5.02158 26.125 3.95825 27.1883 3.95825 28.5C3.95825 29.8117 5.02158 30.875 6.33325 30.875H31.6666C32.9711 30.858 34.0245 29.8046 34.0416 28.5Z" fill="white"/>
<path d="M31.6666 35.625H15.8333C14.5216 35.625 13.4583 36.6883 13.4583 38C13.4583 39.3117 14.5216 40.375 15.8333 40.375H31.6666C32.9783 40.375 34.0416 39.3117 34.0416 38C34.0416 36.6883 32.9783 35.625 31.6666 35.625Z" fill="white"/>
</svg>
