<svg width="76" height="76" viewBox="0 0 76 76" fill="none" xmlns="http://www.w3.org/2000/svg">
<path fill-rule="evenodd" clip-rule="evenodd" d="M42.0852 8.0526L63.7768 23.2843C67.1492 25.6544 69.1575 29.5173 69.1602 33.6393V56.2176C69.1518 59.8038 67.7191 63.2397 65.1774 65.7696C62.6356 68.2995 59.193 69.716 55.6068 69.7076H19.8868C16.3007 69.716 12.858 68.2995 10.3163 65.7696C7.77454 63.2397 6.34188 59.8038 6.3335 56.2176V33.6393C6.33619 29.5173 8.34442 25.6544 11.7168 23.2843L33.4085 8.0526C35.8465 5.7603 39.6471 5.7603 42.0852 8.0526ZM61.8186 62.4109C63.4696 60.7718 64.4018 58.544 64.4102 56.2176V33.6393C64.3658 31.1135 63.1188 28.7606 61.0535 27.3059L39.3618 12.0743L39.0135 11.8209C38.68 11.4805 38.2234 11.2887 37.7468 11.2887C37.2702 11.2887 36.8137 11.4805 36.4802 11.8209L36.1318 12.0743L14.4402 27.3059C12.3749 28.7606 11.1279 31.1135 11.0835 33.6393V56.2176C11.0919 58.544 12.0241 60.7718 13.675 62.4109C15.326 64.0499 17.5604 64.966 19.8868 64.9576H55.6068C57.9332 64.966 60.1677 64.0499 61.8186 62.4109Z" fill="white"/>
<path d="M56.9685 34.8743L39.4251 47.1293C38.9058 47.6488 38.1927 47.9272 37.4588 47.8971C36.7248 47.867 36.0369 47.5312 35.5618 46.9709L18.5251 34.8743C17.8408 34.2824 16.8796 34.1308 16.0463 34.4833C15.213 34.8357 14.6524 35.6311 14.6004 36.5344C14.5485 37.4377 15.0144 38.292 15.8018 38.7376L32.5851 50.7076C33.9614 51.9888 35.7715 52.7016 37.6518 52.7026C39.4202 52.6578 41.106 51.945 42.3701 50.7076L59.6918 38.6109C60.6876 37.8739 60.9496 36.4952 60.2935 35.4443C59.5261 34.3793 58.0468 34.1257 56.9685 34.8743Z" fill="white"/>
</svg>
