<svg width="76" height="76" viewBox="0 0 76 76" fill="none" xmlns="http://www.w3.org/2000/svg">
<path fill-rule="evenodd" clip-rule="evenodd" d="M54.0377 38.5L66.3711 50.8334C67.2006 51.7828 67.4895 53.0893 67.1377 54.3L64.8711 62.2C64.5219 63.3954 63.5949 64.3349 62.4044 64.7L54.3044 67.1334C53.0134 67.4834 51.6335 67.1289 50.6711 66.2L38.3044 53.8334C36.6237 52.154 34.347 51.2074 31.9711 51.2C30.8274 51.2052 29.6955 51.4316 28.6377 51.8667C27.5759 52.2842 26.4453 52.499 25.3044 52.5C22.9255 52.5074 20.6435 51.5586 18.9711 49.8667L8.97108 39.8667C6.6994 37.603 5.80969 34.2983 6.63775 31.2L10.5377 16.7667C11.3303 13.6348 13.752 11.1749 16.8711 10.3334L31.4377 6.63337C32.1998 6.43536 32.9838 6.33456 33.7711 6.33337C36.147 6.34076 38.4237 7.28736 40.1044 8.96671L50.1044 18.9667C52.6664 21.5295 53.4415 25.3788 52.0711 28.7334C50.7006 32.088 51.4758 35.9373 54.0377 38.5ZM53.7711 62.2334L60.4378 60.2667L62.2711 53.7334L50.5044 41.9667C46.5001 37.9863 45.3013 31.9792 47.4711 26.7667C48.0437 25.2647 47.6779 23.5664 46.5378 22.4334L36.5378 12.4334C35.8023 11.6793 34.791 11.258 33.7378 11.2667C33.3952 11.2161 33.047 11.2161 32.7044 11.2667L18.1711 15.1667C16.8053 15.5341 15.7385 16.6009 15.3711 17.9667L11.4711 32.6334C11.1053 34.004 11.4993 35.4656 12.5044 36.4667L22.5044 46.4667C23.2399 47.2207 24.2511 47.6421 25.3044 47.6334C25.8158 47.6285 26.3227 47.5384 26.8044 47.3667C28.4511 46.6777 30.2194 46.3263 32.0044 46.3334C35.7551 46.2913 39.3628 47.7705 42.0044 50.4334L53.7711 62.2334Z" fill="white"/>
<path d="M32.6044 22.0667L22.2711 32.4C21.2962 33.3761 21.2962 34.9573 22.2711 35.9334C23.2471 36.9082 24.8284 36.9082 25.8044 35.9334L36.1378 25.6C36.6142 25.1357 36.883 24.4987 36.883 23.8334C36.883 23.1681 36.6142 22.531 36.1378 22.0667C35.1617 21.0919 33.5805 21.0919 32.6044 22.0667Z" fill="white"/>
</svg>
