<svg width="90" height="90" viewBox="0 0 90 90" fill="none" xmlns="http://www.w3.org/2000/svg">
<path fill-rule="evenodd" clip-rule="evenodd" d="M52.1062 9.42686C56.8425 10.3692 61.2482 12.2328 65.1231 14.8242L72.9395 9.72574C75.6575 11.8812 78.1188 14.346 80.2743 17.0605L75.1758 24.8734C77.7672 28.7518 79.6308 33.1575 80.5731 37.8938L89.7011 39.8136C89.898 41.5155 90 43.2454 90 45C90 46.7546 89.8945 48.4845 89.7011 50.1864L80.5731 52.1062C79.6308 56.8425 77.7672 61.2482 75.1758 65.1231L80.2743 72.9395C78.1188 75.6575 75.654 78.1188 72.9395 80.2743L65.1266 75.1758C61.2482 77.7672 56.8425 79.6308 52.1062 80.5731L50.1864 89.7011C48.4845 89.898 46.7546 90 45 90C43.2454 90 41.5155 89.8945 39.8136 89.7011L37.8938 80.5731C33.1575 79.6308 28.7518 77.7672 24.8769 75.1758L17.0605 80.2743C14.3425 78.1188 11.8812 75.654 9.72574 72.9395L14.8242 65.1266C12.2328 61.2482 10.3692 56.8425 9.42686 52.1062L0.298875 50.1864C0.101969 48.4845 0 46.7546 0 45C0 43.2454 0.105485 41.5155 0.298875 39.8136L9.42686 37.8938C10.3692 33.1575 12.2328 28.7518 14.8242 24.8734L9.72574 17.0605C11.8812 14.3425 14.346 11.8812 17.0605 9.72574L24.8769 14.8242C28.7553 12.2328 33.1575 10.3692 37.8973 9.42686L39.8172 0.298875C41.519 0.101969 43.2489 0 45.0035 0C46.7581 0 48.488 0.101969 50.1899 0.298875L52.1062 9.42686ZM22.7075 47.4297L29.0049 41.1322L40.3411 52.4684L60.9951 31.8108L67.2925 38.1083L40.3411 65.0633L22.7075 47.4297ZM45 13.2454C62.5387 13.2454 76.7581 27.4648 76.7581 45.0035C76.7581 62.5422 62.5387 76.7616 45 76.7616C27.4613 76.7616 13.2419 62.5422 13.2419 45.0035C13.2419 27.4648 27.4613 13.2454 45 13.2454Z" fill="white"/>
</svg>
