<svg width="76" height="76" viewBox="0 0 76 76" fill="none" xmlns="http://www.w3.org/2000/svg">
<path fill-rule="evenodd" clip-rule="evenodd" d="M42.6234 8.8983L61.6234 19.4433C64.643 21.1255 66.5107 24.3151 66.5 27.7716V48.2283C66.5107 51.6849 64.643 54.8744 61.6234 56.5566L42.6234 67.1016C39.7491 68.7029 36.251 68.7029 33.3767 67.1016L14.3767 56.5566C11.3571 54.8744 9.48941 51.6849 9.50005 48.2283V27.7716C9.48941 24.3151 11.3571 21.1255 14.3767 19.4433L33.3767 8.8983C36.251 7.29708 39.7491 7.29708 42.6234 8.8983ZM59.185 52.4083C60.6853 51.5497 61.6145 49.9568 61.6234 48.2283V27.7716C61.6145 26.0431 60.6853 24.4502 59.185 23.5916L40.185 13.0466C38.7479 12.246 36.9988 12.246 35.5617 13.0466L16.5617 23.5916C15.0615 24.4502 14.1323 26.0431 14.1234 27.7716V48.2283C14.1323 49.9568 15.0615 51.5497 16.5617 52.4083L35.5617 62.9533C36.9988 63.7539 38.7479 63.7539 40.185 62.9533L59.185 52.4083Z" fill="white"/>
<path d="M52.8201 25.9666L39.4251 33.4083C38.5433 33.9174 37.4569 33.9174 36.5751 33.4083L23.1801 25.9666C22.4375 25.532 21.5179 25.5331 20.7762 25.9694C20.0346 26.4057 19.587 27.209 19.6061 28.0692C19.6252 28.9295 20.1081 29.7121 20.8684 30.115L34.2634 37.5566C34.7078 37.7925 35.1745 37.9834 35.6568 38.1266V52.25C35.6568 53.5616 36.7201 54.625 38.0318 54.625C39.3434 54.625 40.4068 53.5616 40.4068 52.25V38C40.8696 37.8731 41.316 37.6924 41.7368 37.4616L55.1318 30.02C56.247 29.3673 56.6358 27.9428 56.0068 26.8141C55.3778 25.6853 53.9618 25.2666 52.8201 25.8716V25.9666Z" fill="white"/>
</svg>
