<svg width="118" height="90" viewBox="0 0 118 90" fill="none" xmlns="http://www.w3.org/2000/svg">
<path fill-rule="evenodd" clip-rule="evenodd" d="M8.35441 0H58.2501C62.7103 0 66.3582 3.64792 66.3582 8.10809V70.4784H69.7262V15.5926H93.4268L117.127 39.2932V70.4784V77.0893H108.646C108.646 68.6844 101.832 61.8716 93.428 61.8716C85.0232 61.8716 78.2104 68.6856 78.2104 77.0893H69.7286H66.3606H40.2905C40.2905 68.6844 33.4765 61.8716 25.0728 61.8716C16.668 61.8716 9.85515 68.6856 9.85515 77.0893H0V70.4784V12.2246V8.35801V0L8.35441 0ZM45.2145 45.0499H35.5732V39.8255H39.9901V35.4795H45.2145V45.0499ZM45.2145 20.6848H35.5732V25.8382H39.9901V30.2551H45.2157L45.2145 20.6848ZM10.2577 10.2348H15.482V50.2742H50.4388V10.2348H55.6632V55.4986H10.2565L10.2577 10.2348ZM20.5045 10.2348H45.5125V15.4592H20.5045V10.2348ZM20.7076 20.6848H30.3489V25.8382H25.9319V30.2551H20.7076V20.6848ZM20.7076 45.0499H30.3489V39.8255H25.9319V35.4795H20.7076V45.0499ZM93.7392 64.1786C100.869 64.1786 106.65 69.9593 106.65 77.0893C106.65 84.2193 100.869 90 93.7392 90C86.6092 90 80.8285 84.2193 80.8285 77.0893C80.8285 69.9593 86.6092 64.1786 93.7392 64.1786ZM25.0704 64.1786C32.2005 64.1786 37.9811 69.9593 37.9811 77.0893C37.9811 84.2193 32.2005 90 25.0704 90C17.9404 90 12.1597 84.2193 12.1597 77.0893C12.1597 69.9593 17.9404 64.1786 25.0704 64.1786ZM79.3939 19.0843H91.3061L111.764 39.292V44.2821H79.6438L79.3939 19.0843Z" fill="white"/>
</svg>
