<svg width="70" height="90" viewBox="0 0 70 90" fill="none" xmlns="http://www.w3.org/2000/svg">
<path fill-rule="evenodd" clip-rule="evenodd" d="M1.19308 61.5681H68.8012V90H1.19308V61.5681ZM17.6772 26.425C17.0778 22.3574 18.1671 16.7142 22.0749 13.8547C16.7205 7.35948 21.3199 1.7688 29.1354 0.397395C32.6628 -0.221198 37.0144 -0.227034 41.3602 1.17355C45.5274 2.51578 53.4813 5.35781 56.8818 10.9485C54.0634 11.5788 45.8617 16.3057 41.7233 20.8635C39.5216 23.2853 36.5014 23.6763 34.1902 23.7464C30.9741 23.8456 28.1614 22.1649 25.7983 18.4708C27.9135 13.6855 34.2939 10.6042 45.245 9.33781C28.6744 8.25819 20.3401 14.7417 17.6772 26.425ZM27.3084 34.4025H33.6542L34.5418 55.9599H26.2767L27.3084 34.4025ZM0 57.6756H70V60.5351H0V57.6756ZM13.7061 28.4558H21.804L22.9395 55.9599H12.3977L13.7061 28.4558ZM38.8703 65.7757H42.1441V74.0333H38.8703V65.7757ZM43.8329 76.1809H47.1066V84.4385H43.8329V76.1809ZM38.8703 76.1809H42.1441V84.4385H38.8703V76.1809ZM43.8329 65.7757H47.1066V74.0333H43.8329V65.7757ZM22.7896 65.7757H26.0634V74.0333H22.7896V65.7757ZM27.7522 76.1809H31.0259V84.4385H27.7522V76.1809ZM22.7896 76.1809H26.0634V84.4385H22.7896V76.1809ZM27.7522 65.7757H31.0259V74.0333H27.7522V65.7757ZM6.70893 65.7757H9.98271V74.0333H6.70893V65.7757ZM11.6715 76.1809H14.9452V84.4385H11.6715V76.1809ZM6.70893 76.1809H9.98271V84.4385H6.70893V76.1809ZM11.6715 65.7757H14.9452V74.0333H11.6715V65.7757ZM5.18732 64.4743H16.4611V85.7457H5.18732V64.4743ZM21.268 64.4743H32.5418V85.7457H21.268V64.4743ZM37.3487 64.4743H48.6225V85.7457H37.3487V64.4743Z" fill="white"/>
</svg>
