<svg width="90" height="90" viewBox="0 0 90 90" fill="none" xmlns="http://www.w3.org/2000/svg">
<path fill-rule="evenodd" clip-rule="evenodd" d="M23.2713 74.5174C26.5458 75.2281 30.1031 74.3103 32.648 71.7655C35.3873 69.0262 36.2406 65.1154 35.2093 61.6465C34.9947 60.9257 35.179 60.1986 35.7104 59.6684L46.5678 48.811L49.3702 51.6134L48.2846 52.699C47.4464 53.5372 47.4464 54.9043 48.2846 55.7425L66.5583 74.0162C67.3965 74.8544 68.7636 74.8544 69.6018 74.0162L73.9771 69.6409C74.8153 68.8027 74.8153 67.4356 73.9771 66.5974L55.7034 48.3237C54.8652 47.4856 53.4981 47.4856 52.6599 48.3237L51.645 49.3387L48.8426 46.5363L50.596 44.7829L51.7422 43.6367L59.6659 35.7129C60.1973 35.1815 60.9245 34.9972 61.644 35.2118C65.1129 36.2431 69.0236 35.3898 71.7629 32.6505C74.3078 30.1056 75.2255 26.5483 74.5148 23.2738L69.4314 28.3573L67.0733 30.7153L63.9478 29.9478L60.8222 29.1803L60.0547 26.0548L59.2872 22.9292L61.6453 20.5711L66.7287 15.4877C63.4542 14.777 59.8969 15.6947 57.352 18.2396C54.6127 20.9789 53.7594 24.8896 54.7907 28.3585C55.0053 29.0793 54.821 29.8064 54.2896 30.3366L46.3659 38.2604L45.2197 39.4066L43.4663 41.16L28.101 25.7947L26.3489 20.715L17.6678 15.3627L15.3917 17.6387L20.6747 26.3893L25.825 28.0707L41.1903 43.436L30.3328 54.2946C29.8014 54.8261 29.0743 55.0104 28.3535 54.7958C24.8846 53.7644 20.9738 54.6178 18.2345 57.3571C15.6897 59.902 14.7719 63.4592 15.4826 66.7338L20.5661 61.6503L22.9241 59.2922L26.0497 60.0598L29.1753 60.8273L29.9428 63.9528L30.7103 67.0784L28.3522 69.4364L23.2713 74.5174ZM45 0C57.4265 0 68.6765 5.03675 76.8199 13.1801C84.9632 21.3235 90 32.5735 90 45C90 57.4265 84.9632 68.6765 76.8199 76.8199C68.6765 84.9632 57.4265 90 45 90C32.5735 90 21.3235 84.9632 13.1801 76.8199C5.03675 68.6765 0 57.4265 0 45C0 32.5735 5.03675 21.3235 13.1801 13.1801C21.3235 5.03675 32.5735 0 45 0ZM74.8456 15.1544C67.2071 7.51599 56.6552 2.7923 45 2.7923C33.3448 2.7923 22.7916 7.51725 15.1544 15.1544C7.51599 22.7929 2.7923 33.3448 2.7923 45C2.7923 56.6552 7.51725 67.2084 15.1544 74.8456C22.7929 82.484 33.3448 87.2077 45 87.2077C56.6552 87.2077 67.2084 82.4827 74.8456 74.8456C82.484 67.2071 87.2077 56.6552 87.2077 45C87.2077 33.3448 82.4827 22.7916 74.8456 15.1544Z" fill="white"/>
</svg>
