<svg width="23" height="23" viewBox="0 0 23 23" fill="none" xmlns="http://www.w3.org/2000/svg">
<g clip-path="url(#clip0_2734_844)">
<path d="M12.188 0.937593C12.188 0.688953 12.2867 0.450496 12.4625 0.274681C12.6384 0.0988654 12.8768 9.33488e-05 13.1255 9.33488e-05C15.611 0.00282297 17.994 0.99142 19.7516 2.74898C21.5091 4.50654 22.4977 6.88953 22.5004 9.37509C22.5004 9.62374 22.4017 9.86219 22.2259 10.038C22.05 10.2138 21.8116 10.3126 21.5629 10.3126C21.3143 10.3126 21.0759 10.2138 20.9 10.038C20.7242 9.86219 20.6255 9.62374 20.6255 9.37509C20.6232 7.38666 19.8323 5.4803 18.4263 4.07426C17.0202 2.66822 15.1139 1.87733 13.1255 1.87509C12.8768 1.87509 12.6384 1.77632 12.4625 1.60051C12.2867 1.42469 12.188 1.18623 12.188 0.937593V0.937593ZM13.1255 5.62509C14.12 5.62509 15.0738 6.02018 15.7771 6.72344C16.4804 7.42671 16.8755 8.38053 16.8755 9.37509C16.8755 9.62374 16.9742 9.86219 17.15 10.038C17.3259 10.2138 17.5643 10.3126 17.813 10.3126C18.0616 10.3126 18.3001 10.2138 18.4759 10.038C18.6517 9.86219 18.7505 9.62374 18.7505 9.37509C18.749 7.88371 18.1559 6.45383 17.1013 5.39926C16.0467 4.34469 14.6168 3.75158 13.1255 3.75009C12.8768 3.75009 12.6384 3.84887 12.4625 4.02468C12.2867 4.2005 12.188 4.43895 12.188 4.68759C12.188 4.93623 12.2867 5.17469 12.4625 5.35051C12.6384 5.52632 12.8768 5.62509 13.1255 5.62509V5.62509ZM21.6501 15.6929C22.1934 16.2377 22.4985 16.9757 22.4985 17.7451C22.4985 18.5145 22.1934 19.2525 21.6501 19.7973L20.797 20.7807C13.1189 28.1317 -5.56546 9.45197 1.67204 1.74947L2.75016 0.811968C3.29557 0.283853 4.02697 -0.00829814 4.78613 -0.00128024C5.54529 0.00573767 6.27117 0.311361 6.80672 0.849468C6.83578 0.878531 8.57297 3.13509 8.57297 3.13509C9.08843 3.67662 9.37537 4.39597 9.37415 5.1436C9.37293 5.89123 9.08363 6.60963 8.5664 7.14947L7.48078 8.51447C8.08157 9.97426 8.9649 11.301 10.08 12.4183C11.1951 13.5357 12.52 14.4217 13.9786 15.0254L15.352 13.9332C15.8919 13.4164 16.6102 13.1274 17.3576 13.1264C18.105 13.1253 18.8241 13.4123 19.3655 13.9276C19.3655 13.9276 21.6211 15.6638 21.6501 15.6929ZM20.3601 17.056C20.3601 17.056 18.1167 15.3301 18.0876 15.301C17.8945 15.1095 17.6335 15.0021 17.3615 15.0021C17.0896 15.0021 16.8286 15.1095 16.6355 15.301C16.6101 15.3273 14.7192 16.8338 14.7192 16.8338C14.5918 16.9353 14.4401 17.0018 14.2792 17.0267C14.1183 17.0517 13.9536 17.0344 13.8014 16.9763C11.9118 16.2728 10.1955 15.1714 8.76875 13.7467C7.34197 12.3221 6.23803 10.6074 5.53172 8.71885C5.46909 8.56458 5.44867 8.39643 5.47257 8.23166C5.49646 8.0669 5.56379 7.91146 5.66766 7.78134C5.66766 7.78134 7.17422 5.88947 7.19953 5.86509C7.39103 5.67196 7.49848 5.41098 7.49848 5.139C7.49848 4.86702 7.39103 4.60604 7.19953 4.41291C7.17047 4.38478 5.44453 2.13947 5.44453 2.13947C5.2485 1.96369 4.99266 1.86956 4.72945 1.87636C4.46624 1.88315 4.2156 1.99037 4.02891 2.17603L2.95078 3.11353C-2.33859 9.47353 13.853 24.767 19.4264 19.5001L20.2805 18.5157C20.4806 18.3303 20.6008 18.0744 20.6157 17.802C20.6305 17.5296 20.5389 17.2621 20.3601 17.056V17.056Z" fill="black"/>
</g>
<defs>
<clipPath id="clip0_2734_844">
<rect width="22.5" height="22.5" fill="white"/>
</clipPath>
</defs>
</svg>
