<svg width="12" height="12" viewBox="0 0 12 12" fill="none" xmlns="http://www.w3.org/2000/svg">
<g clip-path="url(#clip0_918_1123)">
<path d="M6.49999 0.499822C6.49999 0.367214 6.55266 0.240037 6.64643 0.146269C6.7402 0.0525004 6.86738 -0.000178079 6.99998 -0.000178079C8.32562 0.00127772 9.59654 0.528529 10.5339 1.4659C11.4713 2.40326 11.9985 3.67419 12 4.99982C12 5.13243 11.9473 5.25961 11.8535 5.35338C11.7598 5.44714 11.6326 5.49982 11.5 5.49982C11.3674 5.49982 11.2402 5.44714 11.1464 5.35338C11.0527 5.25961 11 5.13243 11 4.99982C10.9988 3.93932 10.577 2.9226 9.82709 2.17271C9.07721 1.42282 8.06048 1.00101 6.99998 0.999822C6.86738 0.999822 6.7402 0.947144 6.64643 0.853375C6.55266 0.759607 6.49999 0.63243 6.49999 0.499822V0.499822ZM6.99998 2.99982C7.53042 2.99982 8.03912 3.21054 8.4142 3.58561C8.78927 3.96068 8.99998 4.46939 8.99998 4.99982C8.99998 5.13243 9.05266 5.25961 9.14643 5.35338C9.2402 5.44714 9.36737 5.49982 9.49998 5.49982C9.63259 5.49982 9.75977 5.44714 9.85353 5.35338C9.9473 5.25961 9.99998 5.13243 9.99998 4.99982C9.99919 4.20442 9.68286 3.44182 9.12042 2.87938C8.55799 2.31694 7.79539 2.00062 6.99998 1.99982C6.86738 1.99982 6.7402 2.0525 6.64643 2.14627C6.55266 2.24004 6.49999 2.36721 6.49999 2.49982C6.49999 2.63243 6.55266 2.75961 6.64643 2.85338C6.7402 2.94714 6.86738 2.99982 6.99998 2.99982V2.99982ZM11.5465 8.36932C11.8362 8.65988 11.9989 9.05348 11.9989 9.46382C11.9989 9.87417 11.8362 10.2678 11.5465 10.5583L11.0915 11.0828C6.99648 15.0033 -2.9685 5.04082 0.891492 0.932822L1.46649 0.432822C1.75738 0.151161 2.14746 -0.00465354 2.55234 -0.000910658C2.95723 0.00283222 3.34436 0.165831 3.62999 0.452822C3.64549 0.468322 4.57199 1.67182 4.57199 1.67182C4.8469 1.96064 4.99994 2.34429 4.99929 2.74302C4.99864 3.14176 4.84434 3.52491 4.56849 3.81282L3.98949 4.54082C4.30991 5.31938 4.78102 6.02695 5.37574 6.62287C5.97046 7.21879 6.67708 7.69133 7.45498 8.01332L8.18748 7.43082C8.47544 7.15518 8.85851 7.00107 9.25713 7.00051C9.65575 6.99995 10.0393 7.15299 10.328 7.42782C10.328 7.42782 11.531 8.35382 11.5465 8.36932ZM10.8585 9.09632C10.8585 9.09632 9.66198 8.17582 9.64648 8.16032C9.54347 8.05819 9.40429 8.00088 9.25923 8.00088C9.11417 8.00088 8.97499 8.05819 8.87198 8.16032C8.85848 8.17432 7.84998 8.97782 7.84998 8.97782C7.78202 9.03192 7.70114 9.06738 7.61531 9.0807C7.52947 9.09403 7.44165 9.08477 7.36048 9.05382C6.35272 8.67861 5.43735 8.09119 4.6764 7.33136C3.91545 6.57153 3.32669 5.65704 2.94999 4.64982C2.91659 4.56755 2.9057 4.47787 2.91844 4.38999C2.93118 4.30212 2.9671 4.21922 3.02249 4.14982C3.02249 4.14982 3.82599 3.14082 3.83949 3.12782C3.94162 3.02482 3.99893 2.88563 3.99893 2.74057C3.99893 2.59551 3.94162 2.45633 3.83949 2.35332C3.82399 2.33832 2.90349 1.14082 2.90349 1.14082C2.79894 1.04708 2.66249 0.99687 2.52211 1.0005C2.38174 1.00412 2.24806 1.0613 2.14849 1.16032L1.57349 1.66032C-1.24751 5.05232 7.38798 13.2088 10.3605 10.3998L10.816 9.87482C10.9227 9.77595 10.9868 9.63945 10.9948 9.49417C11.0027 9.34889 10.9538 9.20623 10.8585 9.09632V9.09632Z" fill="white"/>
</g>
<defs>
<clipPath id="clip0_918_1123">
<rect width="12" height="12" fill="white"/>
</clipPath>
</defs>
</svg>
