<svg width="12" height="12" viewBox="0 0 12 12" fill="none" xmlns="http://www.w3.org/2000/svg">
<g clip-path="url(#clip0_915_703)">
<path d="M6.49999 0.500036C6.49999 0.367427 6.55266 0.24025 6.64643 0.146482C6.7402 0.052714 6.86738 3.55445e-05 6.99998 3.55445e-05C8.32562 0.00149134 9.59654 0.528743 10.5339 1.46611C11.4713 2.40348 11.9985 3.6744 12 5.00004C12 5.13264 11.9473 5.25982 11.8535 5.35359C11.7598 5.44736 11.6326 5.50004 11.5 5.50004C11.3674 5.50004 11.2402 5.44736 11.1464 5.35359C11.0527 5.25982 11 5.13264 11 5.00004C10.9988 3.93954 10.577 2.92281 9.82709 2.17292C9.07721 1.42304 8.06048 1.00123 6.99998 1.00004C6.86738 1.00004 6.7402 0.947357 6.64643 0.853589C6.55266 0.759821 6.49999 0.632644 6.49999 0.500036ZM6.99998 3.00004C7.53042 3.00004 8.03912 3.21075 8.4142 3.58582C8.78927 3.9609 8.99998 4.4696 8.99998 5.00004C8.99998 5.13264 9.05266 5.25982 9.14643 5.35359C9.2402 5.44736 9.36737 5.50004 9.49998 5.50004C9.63259 5.50004 9.75977 5.44736 9.85353 5.35359C9.9473 5.25982 9.99998 5.13264 9.99998 5.00004C9.99919 4.20463 9.68286 3.44203 9.12043 2.87959C8.55799 2.31716 7.79539 2.00083 6.99998 2.00004C6.86738 2.00004 6.7402 2.05271 6.64643 2.14648C6.55266 2.24025 6.49999 2.36743 6.49999 2.50004C6.49999 2.63264 6.55266 2.75982 6.64643 2.85359C6.7402 2.94736 6.86738 3.00004 6.99998 3.00004ZM11.5465 8.36954C11.8362 8.66009 11.9989 9.05369 11.9989 9.46404C11.9989 9.87438 11.8362 10.268 11.5465 10.5585L11.0915 11.083C6.99648 15.0035 -2.9685 5.04104 0.891492 0.933036L1.46649 0.433036C1.75738 0.151374 2.14746 -0.00443992 2.55234 -0.000697035C2.95723 0.00304585 3.34436 0.166045 3.62999 0.453036C3.64549 0.468536 4.57199 1.67204 4.57199 1.67204C4.8469 1.96085 4.99994 2.3445 4.99929 2.74324C4.99864 3.14197 4.84434 3.52512 4.56849 3.81304L3.98949 4.54104C4.30991 5.31959 4.78102 6.02716 5.37574 6.62308C5.97046 7.21901 6.67708 7.69154 7.45498 8.01354L8.18748 7.43104C8.47544 7.15539 8.85851 7.00128 9.25713 7.00073C9.65575 7.00017 10.0393 7.1532 10.328 7.42804C10.328 7.42804 11.531 8.35404 11.5465 8.36954ZM10.8585 9.09654C10.8585 9.09654 9.66198 8.17604 9.64648 8.16054C9.54347 8.0584 9.40429 8.0011 9.25923 8.0011C9.11417 8.0011 8.97499 8.0584 8.87198 8.16054C8.85848 8.17454 7.84998 8.97804 7.84998 8.97804C7.78202 9.03213 7.70114 9.06759 7.61531 9.08092C7.52947 9.09424 7.44165 9.08498 7.36048 9.05404C6.35272 8.67882 5.43735 8.0914 4.6764 7.33158C3.91545 6.57175 3.32669 5.65725 2.94999 4.65004C2.91659 4.56776 2.9057 4.47808 2.91844 4.39021C2.93118 4.30233 2.9671 4.21943 3.02249 4.15004C3.02249 4.15004 3.82599 3.14104 3.83949 3.12804C3.94162 3.02503 3.99893 2.88584 3.99893 2.74079C3.99893 2.59573 3.94162 2.45654 3.83949 2.35354C3.82399 2.33854 2.90349 1.14104 2.90349 1.14104C2.79894 1.04729 2.66249 0.997083 2.52211 1.00071C2.38174 1.00433 2.24806 1.06152 2.14849 1.16054L1.57349 1.66054C-1.24751 5.05254 7.38798 13.209 10.3605 10.4L10.816 9.87504C10.9227 9.77617 10.9868 9.63967 10.9948 9.49439C11.0027 9.34911 10.9538 9.20644 10.8585 9.09654Z" fill="#237389"/>
</g>
<defs>
<clipPath id="clip0_915_703">
<rect width="12" height="12" fill="white"/>
</clipPath>
</defs>
</svg>
