<svg width="25" height="25" viewBox="0 0 25 25" fill="none" xmlns="http://www.w3.org/2000/svg">
<g clip-path="url(#clip0_1348_970)">
<path d="M13.5415 1.04187C13.5415 0.765598 13.6512 0.500646 13.8466 0.305296C14.0419 0.109945 14.3069 0.000198664 14.5831 0.000198664C17.3449 0.00323158 19.9926 1.10167 21.9455 3.05452C23.8983 5.00737 24.9968 7.65513 24.9998 10.4169C24.9998 10.6931 24.89 10.9581 24.6947 11.1534C24.4993 11.3488 24.2344 11.4585 23.9581 11.4585C23.6819 11.4585 23.4169 11.3488 23.2216 11.1534C23.0262 10.9581 22.9165 10.6931 22.9165 10.4169C22.914 8.20749 22.0352 6.08932 20.4729 4.52705C18.9107 2.96478 16.7925 2.08601 14.5831 2.08353C14.3069 2.08353 14.0419 1.97379 13.8466 1.77843C13.6512 1.58308 13.5415 1.31813 13.5415 1.04187ZM14.5831 6.2502C15.6882 6.2502 16.748 6.68919 17.5294 7.47059C18.3108 8.25199 18.7498 9.3118 18.7498 10.4169C18.7498 10.6931 18.8595 10.9581 19.0549 11.1534C19.2502 11.3488 19.5152 11.4585 19.7915 11.4585C20.0677 11.4585 20.3327 11.3488 20.528 11.1534C20.7234 10.9581 20.8331 10.6931 20.8331 10.4169C20.8315 8.75977 20.1725 7.17102 19.0007 5.99928C17.829 4.82753 16.2402 4.16852 14.5831 4.16687C14.3069 4.16687 14.0419 4.27661 13.8466 4.47196C13.6512 4.66731 13.5415 4.93227 13.5415 5.20853C13.5415 5.4848 13.6512 5.74975 13.8466 5.9451C14.0419 6.14045 14.3069 6.2502 14.5831 6.2502ZM24.055 17.4367C24.6587 18.042 24.9976 18.862 24.9976 19.7169C24.9976 20.5717 24.6587 21.3917 24.055 21.9971L23.1071 23.0898C14.5758 31.2575 -6.18455 10.5023 1.85711 1.94395L3.05503 0.902282C3.66104 0.315487 4.4737 -0.00912521 5.31722 -0.00132754C6.16073 0.00647013 6.96726 0.346051 7.56231 0.943949C7.59461 0.97624 9.52481 3.48353 9.52481 3.48353C10.0975 4.08523 10.4164 4.8845 10.415 5.7152C10.4137 6.5459 10.0922 7.34413 9.51752 7.94395L8.31127 9.46062C8.97882 11.0826 9.96029 12.5567 11.1993 13.7982C12.4383 15.0397 13.9104 16.0242 15.5311 16.695L17.0571 15.4815C17.657 14.9072 18.4551 14.5861 19.2855 14.585C20.116 14.5838 20.915 14.9026 21.5165 15.4752C21.5165 15.4752 24.0227 17.4044 24.055 17.4367ZM22.6217 18.9512C22.6217 18.9512 20.129 17.0335 20.0967 17.0012C19.8821 16.7885 19.5921 16.6691 19.2899 16.6691C18.9877 16.6691 18.6977 16.7885 18.4831 17.0012C18.455 17.0304 16.354 18.7044 16.354 18.7044C16.2124 18.8171 16.0439 18.8909 15.8651 18.9187C15.6862 18.9465 15.5033 18.9272 15.3342 18.8627C13.2347 18.081 11.3277 16.8572 9.74235 15.2742C8.15703 13.6913 6.93044 11.7861 6.14565 9.6877C6.07606 9.5163 6.05338 9.32946 6.07992 9.14639C6.10647 8.96331 6.18129 8.79061 6.29669 8.64603C6.29669 8.64603 7.97065 6.54395 7.99877 6.51687C8.21155 6.30227 8.33094 6.0123 8.33094 5.71009C8.33094 5.40789 8.21155 5.11792 7.99877 4.90332C7.96648 4.87207 6.04877 2.37728 6.04877 2.37728C5.83096 2.18198 5.54669 2.07738 5.25424 2.08493C4.96179 2.09249 4.6833 2.21162 4.47586 2.41791L3.27794 3.45957C-2.59913 10.5262 15.3915 27.5189 21.5842 21.6669L22.5331 20.5731C22.7555 20.3671 22.8891 20.0828 22.9056 19.7801C22.9221 19.4774 22.8203 19.1802 22.6217 18.9512Z" fill="#237389"/>
</g>
<defs>
<clipPath id="clip0_1348_970">
<rect width="25" height="25" fill="white"/>
</clipPath>
</defs>
</svg>
