<svg width="36" height="36" viewBox="0 0 36 36" fill="none" xmlns="http://www.w3.org/2000/svg">
<g clip-path="url(#clip0_815_731)">
<path d="M11.3252 32.625C24.9068 32.625 32.3374 21.3701 32.3374 11.6129C32.3374 11.2964 32.3304 10.973 32.3163 10.6566C33.7618 9.61125 35.0092 8.31644 36 6.83301C34.6538 7.43196 33.2245 7.82313 31.7609 7.99317C33.3019 7.06942 34.4558 5.61827 35.0086 3.90871C33.5588 4.7679 31.9734 5.37398 30.3202 5.70098C29.2063 4.5174 27.7335 3.73374 26.1295 3.47114C24.5256 3.20854 22.8798 3.48164 21.4466 4.24821C20.0134 5.01477 18.8727 6.23212 18.2008 7.71203C17.5288 9.19194 17.3631 10.852 17.7293 12.4355C14.7937 12.2882 11.9219 11.5256 9.29997 10.1972C6.67804 8.8688 4.36454 7.00422 2.50945 4.72434C1.5666 6.34993 1.27808 8.27353 1.70255 10.1042C2.12701 11.9349 3.23259 13.5352 4.79461 14.58C3.62194 14.5428 2.47496 14.2271 1.44844 13.6589V13.7504C1.44739 15.4563 2.03715 17.1099 3.11746 18.4302C4.19778 19.7505 5.70199 20.6559 7.37437 20.9925C6.28808 21.2898 5.14797 21.3331 4.04227 21.1191C4.51418 22.5862 5.43236 23.8694 6.66866 24.7896C7.90495 25.7097 9.39768 26.221 10.9385 26.2519C8.32264 28.3067 5.09126 29.4213 1.76484 29.416C1.17493 29.4151 0.585599 29.3789 0 29.3077C3.37928 31.4757 7.3103 32.6271 11.3252 32.625Z" fill="#3A2121"/>
</g>
<defs>
<clipPath id="clip0_815_731">
<rect width="36" height="36" fill="white"/>
</clipPath>
</defs>
</svg>
