<?xml version="1.0" encoding="UTF-8"?>
<!DOCTYPE svg PUBLIC "-//W3C//DTD SVG 1.1//EN" "http://www.w3.org/Graphics/SVG/1.1/DTD/svg11.dtd">
<!-- Creator: CorelDRAW 2020 (64-Bit) -->
<svg xmlns="http://www.w3.org/2000/svg" xml:space="preserve" width="125px" height="35px" version="1.1" style="shape-rendering:geometricPrecision; text-rendering:geometricPrecision; image-rendering:optimizeQuality; fill-rule:evenodd; clip-rule:evenodd"
viewBox="0 0 13297 3719"
 xmlns:xlink="http://www.w3.org/1999/xlink"
 xmlns:xodm="http://www.corel.com/coreldraw/odm/2003">
 <defs>
  <style type="text/css">
   <![CDATA[
    .fil0 {fill:#0BA8BE}
    .fil1 {fill:white}
    .fil2 {fill:white;fill-rule:nonzero}
   ]]>
  </style>
 </defs>
 <g id="Слой_x0020_1">
  <metadata id="CorelCorpID_0Corel-Layer"/>
  <g id="_2798460866896">
   <polygon class="fil0" points="5724,2861 4932,2861 4932,2431 5295,2431 5295,2074 5724,2074 "/>
   <polygon class="fil0" points="3710,2861 4503,2861 4503,2431 4140,2431 4140,2074 3710,2074 "/>
   <polygon class="fil0" points="3710,859 4503,859 4503,1282 4140,1282 4140,1645 3710,1645 "/>
   <polygon class="fil1" points="3694,0 5749,0 5749,429 3694,429 "/>
   <polygon class="fil1" points="2852,0 3281,0 3281,3290 6154,3290 6154,0 6583,0 6583,3719 2852,3719 "/>
   <polygon class="fil0" points="5724,859 4932,859 4932,1282 5295,1282 5295,1645 5724,1645 "/>
   <path class="fil2" d="M7301 2848c-42,1 -77,15 -106,41 -29,25 -44,56 -44,93 0,36 15,68 44,94 29,26 64,39 106,39l291 0c12,0 22,4 30,12 9,7 13,16 13,27 0,11 -4,20 -12,28 -9,6 -19,10 -31,11l-283 0c-12,0 -22,-4 -30,-12 -9,-8 -13,-17 -13,-27l0 -1 -116 0c0,38 15,70 45,97 30,27 67,40 109,40l299 0c43,0 79,-13 109,-40 30,-27 45,-59 45,-97 1,-38 -14,-70 -45,-97 -30,-27 -66,-41 -109,-40 -30,-1 -77,-1 -140,0 -63,0 -110,0 -141,0 -10,0 -19,-4 -26,-10 -8,-7 -11,-15 -11,-24 0,-10 3,-18 10,-24 8,-8 17,-11 27,-10l257 0c12,-1 21,2 28,9 7,7 11,15 11,25 1,0 0,0 0,2l0 0 120 0 0 -2c0,-37 -15,-69 -44,-95 -29,-26 -64,-39 -105,-39l-288 0zm733 0l312 282 0 160 124 0 0 -160 312 -282 -182 0 -192 186 -192 -186 -182 0zm1174 0c-41,1 -76,15 -105,41 -29,25 -44,56 -44,93 0,36 15,68 44,94 29,26 64,39 105,39l292 0c11,0 22,4 30,12 9,7 13,16 13,27 0,11 -4,20 -12,28 -9,6 -19,10 -31,11l-283 0c-12,0 -22,-4 -31,-12 -8,-8 -12,-17 -12,-27l0 -1 -116 0c0,38 15,70 45,97 30,27 67,40 109,40l299 0c43,0 79,-13 109,-40 30,-27 45,-59 45,-97 0,-38 -14,-70 -45,-97 -30,-27 -66,-41 -109,-40 -30,-1 -77,-1 -140,0 -63,0 -110,0 -141,0 -10,0 -19,-4 -26,-10 -8,-7 -11,-15 -12,-24 0,-10 4,-18 11,-24 8,-8 17,-11 27,-10l257 0c12,-1 21,2 28,9 7,7 11,15 11,25 0,0 0,0 0,2l0 0 120 0 0 -2c0,-37 -15,-69 -44,-95 -29,-26 -64,-39 -106,-39l-288 0zm737 0l0 99 234 0 0 343 124 0 0 -343 234 0 0 -99 -592 0zm872 0l0 442 558 0 0 -98 -435 0 0 -76 377 0 0 -97 -377 0 0 -72 435 0 0 -99 -558 0zm1575 0l0 442 -124 0 0 -280 -184 240 -106 0 -184 -240 0 280 -123 0 0 -442 128 0 232 310 232 -310 129 0zm446 0c-42,1 -77,15 -106,41 -29,25 -43,56 -43,93 0,36 14,68 43,94 29,26 65,39 106,39l291 0c12,0 22,4 31,12 8,7 13,16 13,27 0,11 -4,20 -13,28 -8,6 -18,10 -31,11l-282 0c-12,0 -22,-4 -31,-12 -8,-8 -13,-17 -13,-27l0 -1 -115 0c0,38 15,70 45,97 30,27 66,40 109,40l299 0c43,0 79,-13 108,-40 31,-27 46,-59 45,-97 1,-38 -14,-70 -44,-97 -30,-27 -66,-41 -109,-40 -30,-1 -77,-1 -140,0 -64,0 -111,0 -141,0 -10,0 -19,-4 -27,-10 -7,-7 -11,-15 -11,-24 0,-10 4,-18 11,-24 7,-8 17,-11 27,-10l257 0c11,-1 20,2 27,9 8,7 12,15 12,25 0,0 0,0 -1,2l0 0 120 0 0 -2c0,-37 -14,-69 -43,-95 -29,-26 -64,-39 -106,-39l-288 0z"/>
   <polygon class="fil2" points="947,500 0,1879 0,2220 1584,2220 1584,2501 2130,2501 2130,2220 2461,2220 2461,1775 2130,1775 2130,1125 1584,1125 1584,1775 742,1775 1613,500 "/>
   <path class="fil2" d="M7149 500l0 2001 545 0 0 -726 913 0 602 726 635 0 -651 -733c177,-21 325,-89 444,-206 118,-120 178,-261 178,-423 0,-177 -69,-327 -206,-452 -137,-124 -303,-187 -497,-187l-1963 0zm545 446l1366 0c64,-3 115,15 153,54 41,35 61,82 60,140 1,56 -19,102 -60,140 -38,37 -89,56 -153,56l-1366 -2 0 -388zm5603 -446l0 2001 -546 0 0 -1267 -814 1088 -469 0 -815 -1088 0 1267 -546 0 0 -2001 566 0 1028 1402 1028 -1402 568 0z"/>
  </g>
 </g>
</svg>
